<?xml version="1.0" standalone="no"?><!-- Generator: Gravit.io --><svg xmlns="http://www.w3.org/2000/svg" xmlns:xlink="http://www.w3.org/1999/xlink" style="isolation:isolate" viewBox="499.181 208.181 30 30" width="30" height="30"><path d=" M 511.3 223.181 L 499.777 234.704 C 498.982 235.499 498.982 236.79 499.777 237.585 L 499.777 237.585 C 500.572 238.38 501.863 238.38 502.658 237.585 L 514.181 226.062 L 525.704 237.585 C 526.499 238.38 527.79 238.38 528.585 237.585 L 528.585 237.585 C 529.38 236.79 529.38 235.499 528.585 234.704 L 517.062 223.181 L 528.585 211.658 C 529.38 210.863 529.38 209.572 528.585 208.777 L 528.585 208.777 C 527.79 207.982 526.499 207.982 525.704 208.777 L 514.181 220.3 L 502.658 208.777 C 501.863 207.982 500.572 207.982 499.777 208.777 L 499.777 208.777 C 498.982 209.572 498.982 210.863 499.777 211.658 L 511.3 223.181 Z " fill-rule="evenodd" fill="rgb(255,255,255)"/></svg>